<?xml version="1.0" encoding="UTF-8" standalone="no"?><!DOCTYPE svg PUBLIC "-//W3C//DTD SVG 1.1//EN" "http://www.w3.org/Graphics/SVG/1.1/DTD/svg11.dtd"><svg width="100%" height="100%" viewBox="0 0 6823 2010" version="1.1" xmlns="http://www.w3.org/2000/svg" xmlns:xlink="http://www.w3.org/1999/xlink" xml:space="preserve" xmlns:serif="http://www.serif.com/" style="fill-rule:evenodd;clip-rule:evenodd;stroke-linejoin:round;stroke-miterlimit:2;"><g><path d="M1050.732,316.276c0,10.373 -0.499,20.703 -1.519,31.011c-0.998,10.308 -2.517,20.53 -4.557,30.686c-2.018,10.178 -4.536,20.204 -7.53,30.122c-3.016,9.918 -6.489,19.64 -10.46,29.21c-3.971,9.57 -8.377,18.924 -13.26,28.06c-4.883,9.136 -10.221,18.012 -15.972,26.628c-5.751,8.615 -11.914,16.927 -18.49,24.935c-6.554,8.008 -13.52,15.668 -20.833,23.003c-7.335,7.313 -14.996,14.258 -23.003,20.833c-8.008,6.576 -16.319,12.739 -24.935,18.49c-8.615,5.751 -17.47,11.068 -26.606,15.951c-9.136,4.883 -18.49,9.31 -28.06,13.281c-9.57,3.971 -19.314,7.444 -29.232,10.46c-9.918,2.995 -19.944,5.512 -30.1,7.53c-10.156,2.018 -20.399,3.537 -30.707,4.557c-10.308,1.02 -20.638,1.519 -31.011,1.519c-10.352,0 -20.681,-0.499 -30.99,-1.519c-10.308,-1.02 -20.551,-2.539 -30.707,-4.557c-10.156,-2.018 -20.182,-4.536 -30.1,-7.53c-9.918,-3.016 -19.661,-6.489 -29.232,-10.46c-9.57,-3.971 -18.924,-8.398 -28.06,-13.281c-9.136,-4.883 -18.012,-10.2 -26.606,-15.951c-8.615,-5.751 -16.927,-11.914 -24.935,-18.49c-8.008,-6.576 -15.668,-13.52 -23.003,-20.833c-7.313,-7.335 -14.28,-14.996 -20.833,-23.003c-6.576,-8.008 -12.739,-16.319 -18.49,-24.935c-5.773,-8.615 -11.089,-17.491 -15.972,-26.628c-4.883,-9.136 -9.288,-18.49 -13.26,-28.06c-3.971,-9.57 -7.444,-19.293 -10.46,-29.21c-3.016,-9.918 -5.512,-19.944 -7.53,-30.122c-2.04,-10.156 -3.559,-20.378 -4.557,-30.686c-1.02,-10.308 -1.541,-20.638 -1.541,-31.011c0,-10.352 0.521,-20.681 1.541,-30.99c0.998,-10.308 2.517,-20.551 4.557,-30.707c2.018,-10.156 4.514,-20.204 7.53,-30.1c3.016,-9.918 6.489,-19.661 10.46,-29.232c3.971,-9.57 8.377,-18.924 13.26,-28.06c4.883,-9.136 10.2,-18.012 15.972,-26.628c5.751,-8.615 11.914,-16.905 18.49,-24.913c6.554,-8.008 13.52,-15.69 20.833,-23.003c7.335,-7.335 14.996,-14.28 23.003,-20.855c8.008,-6.554 16.319,-12.717 24.935,-18.49c8.594,-5.751 17.47,-11.068 26.606,-15.951c9.136,-4.883 18.49,-9.31 28.06,-13.26c9.57,-3.971 19.314,-7.465 29.232,-10.46c9.918,-3.016 19.944,-5.534 30.1,-7.552c10.156,-2.018 20.399,-3.537 30.707,-4.557c10.308,-0.998 20.638,-1.519 30.99,-1.519c10.373,0 20.703,0.521 31.011,1.519c10.308,1.02 20.551,2.539 30.707,4.557c10.156,2.018 20.182,4.536 30.1,7.552c9.918,2.995 19.661,6.489 29.232,10.46c9.57,3.95 18.924,8.377 28.06,13.26c9.136,4.883 17.99,10.2 26.606,15.951c8.615,5.773 16.927,11.936 24.935,18.49c8.008,6.576 15.668,13.52 23.003,20.855c7.313,7.313 14.28,14.996 20.833,23.003c6.576,8.008 12.739,16.298 18.49,24.913c5.751,8.615 11.089,17.491 15.972,26.628c4.883,9.136 9.288,18.49 13.26,28.06c3.971,9.57 7.444,19.314 10.46,29.232c2.995,9.896 5.512,19.944 7.53,30.1c2.04,10.156 3.559,20.399 4.557,30.707c1.02,10.308 1.519,20.638 1.519,30.99Z" style="fill:#2ecc40;fill-rule:nonzero;"/><path d="M414.523,720.539l642.817,0l0,588.747c0,0 25.695,443.202 -379.703,614.037c-399.51,168.354 -677.637,-113.731 -677.637,-113.731l280.533,-293.461c0,0 93.178,95.707 210.087,47.639c193.66,-79.626 177.021,-232.743 177.021,-232.743l-0.536,-219.908l-248.926,0l-3.657,-390.58Z" style="fill:#2ecc40;"/></g><path d="M1882.155,683.112c366.241,0 663.582,297.101 663.582,663.047c0,365.945 -297.341,663.047 -663.582,663.047c-366.241,0 -663.582,-297.101 -663.582,-663.047c0,-365.945 297.341,-663.047 663.582,-663.047Zm0,347.668c-155.8,0 -282.29,141.316 -282.29,315.379c0,174.062 126.49,315.379 282.29,315.379c155.8,0 282.29,-141.316 282.29,-315.379c0,-174.062 -126.49,-315.379 -282.29,-315.379Z" style="fill:#1a1a1a;"/><rect x="5262.361" y="715.401" width="381.556" height="1261.514" style="fill:#1a1a1a;"/><path d="M5850.241,1976.916l0,-1261.514l940.966,0l0,309.174l-559.409,0l0,166.996l502.538,0l0,309.174l-502.538,0l0,166.996l590.43,0l0,309.174l-971.987,0Z" style="fill:#1a1a1a;"/><path d="M3960.425,719.353l604.541,0c0,0 463.076,-35.716 485.747,293.885c16.078,233.755 -179.264,308.796 -179.264,308.796c0,0 237.919,84.012 237.091,297.231c-1.479,380.736 -471.869,357.371 -471.869,357.371l-676.576,0l0.329,-1257.284Zm389.934,284.877l0,208.177l157.289,0c0,0 166.927,13.534 167.344,-104.551c0.4,-113.352 -171.045,-104.169 -171.045,-104.169l-153.589,0.543Zm0,466.726l0,219.462l209.596,0c0,0 161.006,13.281 161.422,-111.206c0.4,-119.497 -165.123,-108.829 -165.123,-108.829l-205.895,0.572Z"/><path d="M2672.928,719.353l604.541,0c0,0 463.076,-35.716 485.747,293.885c16.078,233.755 -179.264,308.796 -179.264,308.796c0,0 237.919,84.012 237.091,297.231c-1.479,380.736 -471.869,357.371 -471.869,357.371l-676.576,0l0.329,-1257.284Zm389.934,284.877l0,208.177l157.289,0c0,0 166.927,13.534 167.344,-104.551c0.4,-113.352 -171.045,-104.169 -171.045,-104.169l-153.589,0.543Zm0,466.726l0,219.462l209.596,0c0,0 161.006,13.281 161.422,-111.206c0.4,-119.497 -165.123,-108.829 -165.123,-108.829l-205.895,0.572Z"/></svg>