<?xml version="1.0" encoding="UTF-8" standalone="no"?><!DOCTYPE svg PUBLIC "-//W3C//DTD SVG 1.1//EN" "http://www.w3.org/Graphics/SVG/1.1/DTD/svg11.dtd"><svg width="100%" height="100%" viewBox="0 0 1924 1924" version="1.1" xmlns="http://www.w3.org/2000/svg" xmlns:xlink="http://www.w3.org/1999/xlink" xml:space="preserve" xmlns:serif="http://www.serif.com/" style="fill-rule:evenodd;clip-rule:evenodd;stroke-linejoin:round;stroke-miterlimit:2;"><circle cx="961.553" cy="961.553" r="961.553" style="fill:#2ecc40;"/><g><path d="M1205.405,543.911c0,6.445 -0.31,12.863 -0.944,19.268c-0.62,6.405 -1.564,12.755 -2.832,19.066c-1.254,6.324 -2.818,12.553 -4.679,18.715c-1.874,6.162 -4.032,12.203 -6.499,18.149c-2.467,5.946 -5.205,11.758 -8.238,17.434c-3.034,5.677 -6.351,11.191 -9.924,16.544c-3.573,5.353 -7.402,10.517 -11.488,15.493c-4.072,4.975 -8.4,9.735 -12.944,14.293c-4.557,4.544 -9.317,8.859 -14.293,12.944c-4.975,4.086 -10.14,7.915 -15.493,11.488c-5.353,3.573 -10.854,6.877 -16.531,9.91c-5.677,3.034 -11.488,5.784 -17.434,8.252c-5.946,2.467 -12,4.625 -18.162,6.499c-6.162,1.861 -12.391,3.425 -18.702,4.679c-6.31,1.254 -12.675,2.198 -19.079,2.832c-6.405,0.634 -12.823,0.944 -19.268,0.944c-6.432,0 -12.85,-0.31 -19.255,-0.944c-6.405,-0.634 -12.769,-1.578 -19.079,-2.832c-6.31,-1.254 -12.54,-2.818 -18.702,-4.679c-6.162,-1.874 -12.216,-4.032 -18.162,-6.499c-5.946,-2.467 -11.758,-5.218 -17.434,-8.252c-5.677,-3.034 -11.191,-6.337 -16.531,-9.91c-5.353,-3.573 -10.517,-7.402 -15.493,-11.488c-4.975,-4.086 -9.735,-8.4 -14.293,-12.944c-4.544,-4.557 -8.872,-9.317 -12.944,-14.293c-4.086,-4.975 -7.915,-10.14 -11.488,-15.493c-3.587,-5.353 -6.89,-10.868 -9.924,-16.544c-3.034,-5.677 -5.771,-11.488 -8.238,-17.434c-2.467,-5.946 -4.625,-11.987 -6.499,-18.149c-1.874,-6.162 -3.425,-12.391 -4.679,-18.715c-1.267,-6.31 -2.211,-12.661 -2.832,-19.066c-0.634,-6.405 -0.957,-12.823 -0.957,-19.268c0,-6.432 0.324,-12.85 0.957,-19.255c0.62,-6.405 1.564,-12.769 2.832,-19.079c1.254,-6.31 2.805,-12.553 4.679,-18.702c1.874,-6.162 4.032,-12.216 6.499,-18.162c2.467,-5.946 5.205,-11.758 8.238,-17.434c3.034,-5.677 6.337,-11.191 9.924,-16.544c3.573,-5.353 7.402,-10.504 11.488,-15.479c4.072,-4.975 8.4,-9.749 12.944,-14.293c4.557,-4.557 9.317,-8.872 14.293,-12.958c4.975,-4.072 10.14,-7.901 15.493,-11.488c5.339,-3.573 10.854,-6.877 16.531,-9.91c5.677,-3.034 11.488,-5.784 17.434,-8.238c5.946,-2.467 12,-4.638 18.162,-6.499c6.162,-1.874 12.391,-3.438 18.702,-4.692c6.31,-1.254 12.675,-2.198 19.079,-2.832c6.405,-0.62 12.823,-0.944 19.255,-0.944c6.445,0 12.863,0.324 19.268,0.944c6.405,0.634 12.769,1.578 19.079,2.832c6.31,1.254 12.54,2.818 18.702,4.692c6.162,1.861 12.216,4.032 18.162,6.499c5.946,2.454 11.758,5.205 17.434,8.238c5.677,3.034 11.178,6.337 16.531,9.91c5.353,3.587 10.517,7.416 15.493,11.488c4.975,4.086 9.735,8.4 14.293,12.958c4.544,4.544 8.872,9.317 12.944,14.293c4.086,4.975 7.915,10.126 11.488,15.479c3.573,5.353 6.89,10.868 9.924,16.544c3.034,5.677 5.771,11.488 8.238,17.434c2.467,5.946 4.625,12 6.499,18.162c1.861,6.149 3.425,12.391 4.679,18.702c1.267,6.31 2.211,12.675 2.832,19.079c0.634,6.405 0.944,12.823 0.944,19.255Z" style="fill:#fff;fill-rule:nonzero;"/><path d="M810.114,795.089l399.397,0l0,365.802c0,0 15.965,275.371 -235.918,381.515c-248.225,104.602 -421.031,-70.664 -421.031,-70.664l174.302,-182.334c0,0 57.893,59.465 130.532,29.599c120.325,-49.473 109.987,-144.608 109.987,-144.608l-0.333,-136.634l-154.663,0l-2.272,-242.676Z" style="fill:#fff;"/></g></svg>